<svg width="35" height="35" viewBox="0 0 35 35" fill="none" xmlns="http://www.w3.org/2000/svg">
<g clip-path="url(#clip0_623_73)">
<path d="M29.5094 8.29219C30.1394 6.54949 28.4506 4.86074 26.7079 5.49219L5.40895 13.1951C3.66041 13.828 3.44895 16.2139 5.05749 17.1457L11.8562 21.0818L17.9273 15.0107C18.2023 14.7451 18.5707 14.5981 18.9531 14.6014C19.3354 14.6047 19.7012 14.7581 19.9716 15.0285C20.242 15.2989 20.3954 15.6647 20.3987 16.047C20.402 16.4294 20.255 16.7978 19.9894 17.0728L13.9183 23.1439L17.8558 29.9426C18.7862 31.5512 21.1721 31.3382 21.805 29.5912L29.5094 8.29219Z" fill="white"/>
</g>
<defs>
<clipPath id="clip0_623_73">
<rect width="35" height="35" fill="white"/>
</clipPath>
</defs>
</svg>
